<svg width="16" height="16" viewBox="0 0 16 16" fill="none" xmlns="http://www.w3.org/2000/svg">
<path d="M2.522 1.88433L8 0.666992L13.478 1.88433C13.626 1.91723 13.7584 1.99964 13.8533 2.11793C13.9482 2.23622 14 2.38334 14 2.53499V9.19299C14 9.85148 13.8373 10.4998 13.5266 11.0803C13.2158 11.6609 12.7666 12.1557 12.2187 12.521L8 15.3337L3.78133 12.521C3.23352 12.1558 2.78431 11.6611 2.47357 11.0806C2.16282 10.5002 2.00016 9.85204 2 9.19366V2.53499C2.00003 2.38334 2.05176 2.23622 2.14666 2.11793C2.24156 1.99964 2.37396 1.91723 2.522 1.88433ZM8 9.00033L9.95933 10.0303L9.58533 7.84899L11.17 6.30366L8.97933 5.98499L8 4.00033L7.02 5.98499L4.83 6.30366L6.41467 7.84899L6.04133 10.0303L8 9.00033Z" fill="#658F0C"/>
</svg>
