<svg width="24" height="24" viewBox="0 0 24 24" fill="none" xmlns="http://www.w3.org/2000/svg">
<path fill-rule="evenodd" clip-rule="evenodd" d="M20 6.528V19.5C20 20.8807 18.8807 22 17.5 22H6.5C5.11929 22 4 20.8807 4 19.5V4.50003C4 3.11931 5.11929 2.00003 6.5 2.00003H15.472C15.6048 1.99161 15.7429 2.03587 15.8536 2.14647L19.8536 6.14647C19.9642 6.25708 20.0084 6.39526 20 6.528ZM15 3.00003H6.5C5.67157 3.00003 5 3.6716 5 4.50003V19.5C5 20.3285 5.67157 21 6.5 21H17.5C18.3284 21 19 20.3285 19 19.5V7.00003H15.5C15.2239 7.00003 15 6.77617 15 6.50003V3.00003ZM16 6.00003V3.70713L18.2929 6.00003H16Z" fill="#1455FE"/>
</svg>
