<svg width="24" height="24" viewBox="0 0 24 24" fill="none" xmlns="http://www.w3.org/2000/svg">
<path fill-rule="evenodd" clip-rule="evenodd" d="M20 19.5V6.528C20.0084 6.39526 19.9642 6.25708 19.8536 6.14647L15.8536 2.14647C15.7429 2.03587 15.6048 1.99161 15.472 2.00003H6.5C5.11929 2.00003 4 3.11931 4 4.50003V19.5C4 20.8807 5.11929 22 6.5 22H17.5C18.8807 22 20 20.8807 20 19.5ZM6.5 3.00003H15V6.50003C15 6.77617 15.2239 7.00003 15.5 7.00003H19V19.5C19 20.3285 18.3284 21 17.5 21H6.5C5.67157 21 5 20.3285 5 19.5V4.50003C5 3.6716 5.67157 3.00003 6.5 3.00003ZM16 3.70713V6.00003H18.2929L16 3.70713ZM14.1464 14.1465L12 16.2929V9.50003C12 9.22388 11.7761 9.00003 11.5 9.00003C11.2239 9.00003 11 9.22388 11 9.50003V16.2929L8.85355 14.1465C8.65829 13.9512 8.34171 13.9512 8.14645 14.1465C7.95118 14.3417 7.95118 14.6583 8.14645 14.8536L11.0802 17.7873C11.1693 17.9247 11.324 18.0156 11.5 18.0156C11.676 18.0156 11.8307 17.9247 11.9198 17.7873L14.8536 14.8536C15.0488 14.6583 15.0488 14.3417 14.8536 14.1465C14.6583 13.9512 14.3417 13.9512 14.1464 14.1465Z" fill="#1455FE"/>
</svg>
