<svg width="156" height="38" viewBox="0 0 156 38" fill="none" xmlns="http://www.w3.org/2000/svg">
<rect y="0.5" width="37" height="37" rx="18.5" fill="#1E2029"/>
<path d="M19.344 12.804H17.296V24.5H19.344V12.804Z" fill="white"/>
<rect width="2" height="12" transform="translate(37 0.5)" fill="#8E1B34"/>
<path d="M55.276 12.986H53.512V26H55.276V12.986ZM65.5108 26.198C68.4448 26.198 70.7668 24.47 71.3248 21.878H69.4528C68.9668 23.48 67.4548 24.506 65.5468 24.506C62.9188 24.506 61.1908 22.526 61.1908 19.484C61.1908 16.442 62.9188 14.462 65.5468 14.462C67.4368 14.462 68.8948 15.488 69.3808 17.18H71.2708C70.7848 14.516 68.5348 12.77 65.6008 12.77C61.8748 12.77 59.3368 15.488 59.3368 19.502C59.3368 23.534 61.8028 26.198 65.5108 26.198ZM73.3071 14.606H77.2311V26H78.9951V14.606H82.9011V12.986H73.3071V14.606ZM94.4125 26V24.362H88.2385V20.24H93.8005V18.674H88.2385V14.606H94.4125V12.986H86.4745V26H94.4125ZM100.533 12.986H98.7686V26H100.533V12.986ZM104.611 16.496C104.611 18.368 105.709 19.592 107.833 20.078L109.975 20.564C111.217 20.852 111.775 21.5 111.775 22.526C111.775 23.822 110.677 24.632 108.949 24.632C107.311 24.632 106.267 23.84 106.231 22.598H104.431C104.539 24.83 106.303 26.216 108.949 26.216C111.721 26.216 113.539 24.722 113.539 22.382C113.539 20.546 112.459 19.394 110.335 18.908L108.193 18.404C106.969 18.116 106.375 17.486 106.375 16.442C106.375 15.164 107.437 14.336 109.075 14.336C110.533 14.336 111.451 15.092 111.541 16.388H113.323C113.179 14.138 111.577 12.752 109.093 12.752C106.411 12.752 104.611 14.264 104.611 16.496ZM129.174 25.988V24.896H125.166L126.966 23.336C128.502 22.004 129.114 21.128 129.114 19.892C129.114 18.224 127.998 17.168 126.258 17.168C124.494 17.168 123.318 18.38 123.282 20.24H124.458C124.482 19.004 125.178 18.224 126.246 18.224C127.29 18.224 127.914 18.872 127.914 19.964C127.914 20.888 127.518 21.476 126.114 22.688L123.318 25.1V26L129.174 25.988ZM131.456 21.668C131.456 24.368 132.788 26.156 135.032 26.156C137.264 26.156 138.596 24.368 138.596 21.668C138.596 18.98 137.204 17.156 135.032 17.156C132.848 17.156 131.456 18.98 131.456 21.668ZM132.62 21.668C132.62 19.508 133.508 18.212 135.032 18.212C136.556 18.212 137.432 19.508 137.432 21.668C137.432 23.804 136.556 25.1 135.032 25.1C133.508 25.1 132.62 23.804 132.62 21.668ZM146.797 25.988V24.896H142.789L144.589 23.336C146.125 22.004 146.737 21.128 146.737 19.892C146.737 18.224 145.621 17.168 143.881 17.168C142.117 17.168 140.941 18.38 140.905 20.24H142.081C142.105 19.004 142.801 18.224 143.869 18.224C144.913 18.224 145.537 18.872 145.537 19.964C145.537 20.888 145.141 21.476 143.737 22.688L140.941 25.1V26L146.797 25.988ZM154.946 25.988V24.896H150.938L152.738 23.336C154.274 22.004 154.886 21.128 154.886 19.892C154.886 18.224 153.77 17.168 152.03 17.168C150.266 17.168 149.09 18.38 149.054 20.24H150.23C150.254 19.004 150.95 18.224 152.018 18.224C153.062 18.224 153.686 18.872 153.686 19.964C153.686 20.888 153.29 21.476 151.886 22.688L149.09 25.1V26L154.946 25.988Z" fill="#1E2029"/>
</svg>
