<svg width="24" height="24" viewBox="0 0 24 24" fill="none" xmlns="http://www.w3.org/2000/svg">
<path d="M1 22.0002C1 19.8784 1.84285 17.8436 3.34315 16.3433C4.84344 14.843 6.87827 14.0002 9 14.0002C11.1217 14.0002 13.1566 14.843 14.6569 16.3433C16.1571 17.8436 17 19.8784 17 22.0002H1ZM9 13.0002C5.685 13.0002 3 10.3152 3 7.00018C3 3.68518 5.685 1.00018 9 1.00018C12.315 1.00018 15 3.68518 15 7.00018C15 10.3152 12.315 13.0002 9 13.0002ZM18.246 3.18418C18.7454 4.39434 19.0016 5.69101 19 7.00018C19.0016 8.30935 18.7454 9.60602 18.246 10.8162L16.569 9.59618C16.8552 8.76061 17.0008 7.88339 17 7.00018C17.0011 6.11703 16.8558 5.2398 16.57 4.40418L18.246 3.18418ZM21.548 0.78418C22.5062 2.71601 23.0032 4.84377 23 7.00018C23 9.23318 22.477 11.3442 21.548 13.2162L19.903 12.0202C20.6282 10.4461 21.0025 8.73325 21 7.00018C21 5.20818 20.607 3.50718 19.903 1.98018L21.548 0.78418Z" fill="white"/>
</svg>
